Coordinates
version=1
nRows=20
nColumns=23
inDegrees=yes

Units are S.I. units (second, meters, Newtons, ...)
If the header above contains a line with 'inDegrees', this indicates whether rotational values are in degrees (yes) or radians (no).

endheader
time	pelvis_tilt	pelvis_list	pelvis_rotation	pelvis_tx	pelvis_ty	pelvis_tz	hip_flexion_r	hip_adduction_r	hip_rotation_r	knee_angle_r	knee_angle_r_beta	ankle_angle_r	subtalar_angle_r	mtp_angle_r	hip_flexion_l	hip_adduction_l	hip_rotation_l	knee_angle_l	knee_angle_l_beta	ankle_angle_l	subtalar_angle_l	mtp_angle_l
      7.50000000	     -7.92296910	     11.24140759	      7.59647316	      2.38039294	      0.99262675	      1.00492597	      3.43816978	    -14.13785074	     -7.58941939	    100.90737946	      1.76116601	    -14.27720581	     -8.43132215	      0.00000000	     33.94419331	     15.23065906	    -15.78478284	     39.46016908	      0.68870987	     10.65789752	     -7.54701503	      0.00000000
      7.50666667	     -8.21798264	     11.46831599	      7.99814646	      2.37754614	      0.98796749	      1.00443317	      6.24286731	    -15.01677404	     -6.85812688	    104.24380941	      1.81939770	    -13.34346640	     -8.61174036	      0.00000000	     33.58294387	     15.97965734	    -14.52102806	     41.53037986	      0.72484187	     12.78094465	     -8.94194089	      0.00000000
      7.51333333	     -8.45317425	     11.67862975	      8.32759477	      2.37461962	      0.98392122	      1.00403924	      9.13526991	    -15.84708064	     -5.92086807	    107.28890386	      1.87254462	    -12.41740120	     -8.56459908	      0.00000000	     32.96494490	     16.66492548	    -13.32956888	     43.30052669	      0.75573676	     14.94079037	    -10.03350337	      0.00000000
      7.52000000	     -8.62735850	     11.86452001	      8.62142055	      2.37166678	      0.98054508	      1.00371271	     12.08754274	    -16.60627232	     -4.83987103	    110.00695673	      1.91998360	    -11.50179731	     -8.30327435	      0.00000000	     32.06337201	     17.27466686	    -12.17628216	     44.73735573	      0.78081416	     17.09970105	    -10.74798781	      0.00000000
      7.52666667	     -8.68544989	     12.01245776	      8.85249834	      2.36879441	      0.97793984	      1.00351398	     15.02212098	    -17.24969001	     -3.64658547	    112.35729254	      1.96100469	    -10.60291310	     -7.94076838	      0.00000000	     30.81026529	     17.74630464	    -11.09917231	     45.82569959	      0.79980934	     19.21438846	    -11.10357963	      0.00000000
      7.53333333	     -8.76747210	     12.04863912	      8.96637101	      2.36602835	      0.97596831	      1.00351780	     18.12526026	    -17.65301472	     -2.29593818	    114.33958054	      1.99560215	     -9.63545104	     -7.55268992	      0.00000000	     29.36619560	     17.98909795	    -10.11982187	     46.53277451	      0.81215013	     21.15132030	    -11.20467259	      0.00000000
      7.54000000	     -8.36408417	     11.88464781	      9.02949832	      2.36360641	      0.97546090	      1.00369541	     20.65401052	    -17.68205038	     -1.17102191	    115.76440367	      2.02047000	     -8.97198861	     -7.65964345	      0.00000000	     27.12177315	     17.95112338	     -8.93083095	     46.78255293	      0.81650958	     22.57829027	    -11.12732621	      0.00000000
      7.54666667	     -8.75184586	     11.89167777	      8.99425341	      2.36113841	      0.97416634	      1.00377391	     24.25514391	    -17.92597225	      0.38884981	    117.07884445	      2.04341132	     -7.70768670	     -7.01165897	      0.00000000	     25.65383907	     17.91236757	     -8.45608290	     46.85972125	      0.81785642	     24.53026731	    -10.60201031	      0.00000000
      7.55333333	     -8.67854492	     11.59140430	      8.94156609	      2.35916496	      0.97431107	      1.00397881	     27.19620708	    -17.65753061	      1.53773259	    117.78587459	      2.05575132	     -6.76207109	     -7.19600724	      0.00000000	     23.44243370	     17.53428408	     -7.65686063	     46.49729375	      0.81153087	     25.78923989	    -10.18716279	      0.00000000
      7.56000000	     -8.96692894	     11.23076291	      8.75558332	      2.35741761	      0.97450329	      1.00418617	     30.57653600	    -17.25081882	      2.75015985	    118.17139872	      2.06247999	     -5.81464853	     -7.33154582	      0.00000000	     21.50909131	     16.92748980	     -7.37354678	     45.85217246	      0.80027138	     26.77476759	     -8.99956339	      0.00000000
      7.56666667	     -9.05606362	     10.64468584	      8.80534441	      2.35622687	      0.97572012	      1.00394440	     33.41888463	    -16.71796366	      3.32358942	    118.02056886	      2.05984751	     -5.03262449	     -7.70159432	      0.00000000	     19.13631011	     16.27901676	     -6.43371077	     44.81285602	      0.78213188	     27.23186745	     -8.58135056	      0.00000000
      7.57333333	     -9.34338409	     10.09050355	      8.42484747	      2.35531662	      0.97679251	      1.00428961	     36.54265054	    -15.85368803	      4.22013265	    117.60929555	      2.05266944	     -4.02908864	     -8.87045362	      0.00000000	     17.01796327	     15.29023699	     -6.56332521	     43.69016815	      0.76253729	     27.70506578	     -6.99792650	      0.00000000
      7.58000000	     -9.65418054	      9.44346775	      8.27907499	      2.35491937	      0.97852866	      1.00404712	     39.37951200	    -15.08202882	      4.61913804	    116.74990862	      2.03767031	     -3.20813795	     -9.99527652	      0.00000000	     14.73401639	     14.44577439	     -6.08527940	     42.17581717	      0.73610687	     27.58612490	     -6.27163398	      0.00000000
      7.58666667	     -9.95059992	      8.55136372	      8.14129170	      2.35506001	      0.98070267	      1.00379917	     41.94158254	    -14.07653984	      4.59382501	    115.46904976	      2.01531510	     -2.56545759	    -11.49392420	      0.00000000	     12.43059230	     13.20740210	     -5.90511284	     40.58115219	      0.70827472	     27.28179689	     -4.81857832	      0.00000000
      7.59333333	    -10.42857147	      7.74451511	      8.05394526	      2.35557075	      0.98305600	      1.00334750	     44.50248028	    -13.22214215	      4.46748107	    113.87612589	      1.98751334	     -1.85027780	    -12.88455868	      0.00000000	     10.24491722	     12.18121121	     -5.53876719	     38.70703655	      0.67556523	     26.30881242	     -4.02468900	      0.00000000
      7.60000000	    -10.79541441	      6.76780943	      7.93051922	      2.35657096	      0.98590980	      1.00290297	     46.69194372	    -12.22028547	      4.03301928	    111.91146655	      1.95322356	     -1.40507033	    -14.55573837	      0.00000000	      7.94190589	     10.91844127	     -5.30059511	     36.67769005	      0.64014645	     24.84595028	     -3.13809101	      0.00000000
      7.60666667	    -11.00491772	      5.68142575	      7.79181459	      2.35804659	      0.98929294	      1.00248860	     48.43190806	    -11.10225435	      3.37003909	    109.57597485	      1.91246154	     -1.09843190	    -16.30860208	      0.00000000	      5.48354389	      9.50258037	     -5.14411578	     34.50051178	      0.60214752	     22.90524567	     -2.30068366	      0.00000000
      7.61333333	    -11.30902920	      4.59612691	      7.64253166	      2.35985976	      0.99277943	      1.00204387	     50.07285726	    -10.03558476	      2.62963489	    106.96336433	      1.86686289	     -0.75610312	    -17.75121713	      0.00000000	      3.15932688	      8.10336100	     -5.10324980	     32.21053455	      0.56217988	     20.27635452	     -1.65436007	      0.00000000
      7.62000000	    -11.55349142	      3.50194184	      7.46303689	      2.36197117	      0.99649356	      1.00166277	     51.43607101	     -8.96849772	      1.81630241	    104.07585105	      1.81646627	     -0.48155776	    -19.01376410	      0.00000000	      0.82372062	      6.71029309	     -5.11779004	     29.84434186	      0.52088203	     17.08826418	     -1.26630152	      0.00000000
      7.62666667	    -11.80013544	      2.42992918	      7.18416139	      2.36431081	      1.00028568	      1.00141945	     52.61505441	     -7.85786791	      1.03905265	    100.93524265	      1.76165232	     -0.26291136	    -19.99100398	      0.00000000	     -1.43440946	      5.36632231	     -5.28277956	     27.46172867	      0.47929758	     13.42034751	     -1.08933301	      0.00000000
